<?xml version="1.0" encoding="UTF-8" standalone="no"?>
<!-- Created with Inkscape (http://www.inkscape.org/) -->

<svg
        xmlns:dc="http://purl.org/dc/elements/1.1/"
        xmlns:cc="http://creativecommons.org/ns#"
        xmlns:rdf="http://www.w3.org/1999/02/22-rdf-syntax-ns#"
        xmlns:svg="http://www.w3.org/2000/svg"
        xmlns="http://www.w3.org/2000/svg"
        xmlns:sodipodi="http://sodipodi.sourceforge.net/DTD/sodipodi-0.dtd"
        xmlns:inkscape="http://www.inkscape.org/namespaces/inkscape"
        version="1.1"
        id="svg115363"
        xml:space="preserve"
        width="800"
        height="800"
        viewBox="0 0 800 800"
        sodipodi:docname="UK-paint-flag-publicdomainvectors.org.svg"
        inkscape:version="0.92.4 (5da689c313, 2019-01-14)"><metadata
     id="metadata115369"><rdf:RDF><cc:Work
         rdf:about=""><dc:format>image/svg+xml</dc:format><dc:type
        rdf:resource="http://purl.org/dc/dcmitype/StillImage" /><dc:title></dc:title></cc:Work></rdf:RDF></metadata><defs
        id="defs115367"><clipPath
       clipPathUnits="userSpaceOnUse"
       id="clipPath115379"><path
         d="M 0,600 H 600 V 0 H 0 Z"
         id="path115377"
         inkscape:connector-curvature="0" /></clipPath></defs><sodipodi:namedview
        pagecolor="#ffffff"
        bordercolor="#666666"
        borderopacity="1"
        objecttolerance="10"
        gridtolerance="10"
        guidetolerance="10"
        inkscape:pageopacity="0"
        inkscape:pageshadow="2"
        inkscape:window-width="797"
        inkscape:window-height="480"
        id="namedview115365"
        showgrid="false"
        inkscape:zoom="0.295"
        inkscape:cx="400"
        inkscape:cy="400"
        inkscape:window-x="0"
        inkscape:window-y="0"
        inkscape:window-maximized="0"
        inkscape:current-layer="g115371" /><g
        id="g115371"
        inkscape:groupmode="layer"
        inkscape:label="UK-paint-flag-publicdomainvectors.org"
        transform="matrix(1.3333333,0,0,-1.3333333,0,800)"><g
       id="g115373"><g
         id="g115375"
         clip-path="url(#clipPath115379)"><path
           d="m 55.807,417.073 c 0.64,-1.91 1.537,-3.759 1.432,-5.69 -0.057,-1.201 -2.08,-1.031 -1.986,-1.994 0.013,-0.073 1.829,0.083 1.986,0 2.161,-0.967 -0.972,-2.292 -0.989,-1.977 0.122,-1.999 1.765,-4.219 1.98,-6.937 0.015,-0.17 0.006,-0.35 -0.019,-0.539 h 31.87 z"
           style="fill:#273376;fill-opacity:1;fill-rule:nonzero;stroke:none"
           id="path115381"
           inkscape:connector-curvature="0" /><path
        d="m 536.228,399.936 c -0.92,0.574 -1.457,1.533 -1.969,2.519 1.618,-0.724 4.306,1.968 1.977,1.974 0.433,-1.637 -3.697,0.092 -3.969,1 2.585,0.426 7.627,-0.131 10.913,1.983 6.063,1.821 -6.058,-0.187 -5.952,1.977 3.214,-0.563 4.618,0.685 6.943,0.997 6.685,-0.326 2.21,1.765 -1.982,0.997 -4.47,-1.509 -15.411,-1.76 -19.831,0 6.052,1.852 15.721,0.868 19.831,1.974 -8.346,1.643 4.697,0.804 3.962,3.971 -2.37,3.071 -5.254,-0.995 -7.932,-0.989 -3.395,0.006 -6.418,2.311 -9.915,2.969 5.453,0.175 11.545,-0.301 13.885,2.983 -0.128,2.017 -2.532,1.763 -4.518,1.926 l -48.563,-24.281 z"
        style="fill:#273376;fill-opacity:1;fill-rule:nonzero;stroke:none"
        id="path115383"
        inkscape:connector-curvature="0" /><path
        d="m 485.483,469.662 c -2.272,0.61 -4.463,1.301 -6.771,1.879 3.938,0.686 10.993,-1.732 11.904,1.974 -5.769,0.18 -10.961,-1.851 -15.868,0 3.002,1.312 8.502,0.104 10.914,1.992 -1.761,0.221 -4.967,-1.009 -3.967,1.974 3.315,-0.236 6.249,-2.126 7.933,0.997 -3.372,2.411 -6.987,-1.226 -9.919,1.98 3.157,1.479 9.248,0.01 11.9,1.985 -3.115,-1.136 -2.409,1.567 -3.966,1.985 -1.644,-1.734 -4.253,0.694 -6.943,0.991 -1.211,0.135 -1.397,-1.082 -2.971,-0.991 -4.928,0.293 -9.423,1.82 -11.905,1.98 0.748,2.245 5.556,0.393 7.933,0.992 1.391,-0.076 3.799,0.219 1.986,0.997 -1.647,-0.009 -3.31,0 -4.955,0 -1.002,0.779 -2.482,0.614 -3.974,2.979 4.62,1.072 8.191,-1.73 9.92,0 0.161,0.148 -8.048,1.989 -8.918,0.991 -1.276,0.053 -1.376,1.264 -2.983,0.992 -2.583,-2.431 -2.187,0.204 -2.969,0.988 -2.102,2.097 -10.261,-2.177 -9.926,1.986 5.904,0.047 12.711,-0.813 14.876,2.977 2.027,-0.903 6.51,-1.992 7.934,0.991 -3.273,-1.403 -2.472,2.018 -3.96,1.98 0.36,0.011 -1.283,-3.793 -3.974,-1.98 0.827,3.18 0.851,2.05 -0.99,3.965 10.495,0.228 22.165,-0.543 28.762,0.984 -7.549,3.438 -15.426,1.391 -23.798,0.996 -27.699,-1.287 -57.98,0.559 -83.306,1.985 7.936,0.652 18.496,-1.314 24.79,0.998 -1.733,0.901 -4.944,0.331 -5.946,1.974 6.226,3.366 18.61,0.565 25.778,2.976 -3.371,1.351 -7.315,0.011 -8.922,0 -2.039,-0.011 -5.233,0.686 -6.939,0.989 -16.392,2.937 -32.341,2.977 -50.581,2.977 -3.927,0 -8.041,0.194 -12.08,0.293 V 403.711 Z"
        style="fill:#273376;fill-opacity:1;fill-rule:nonzero;stroke:none"
        id="path115385"
        inkscape:connector-curvature="0" /><path
        d="m 225.609,507.733 c -3.757,-0.747 -7.828,-2.001 -11.685,-2.483 -12.418,-1.538 -24.939,-5.685 -34.7,-4.949 -0.175,-5.505 -8.306,0.883 -7.938,-0.991 0.61,-0.059 1.181,-0.159 0.995,-0.994 -0.261,-1.401 -2.177,-1.134 -2.975,-1.983 -4.666,-0.577 -7,-1.066 -9.919,-1.986 -3.144,-0.988 -7.209,-3.208 -8.929,-3.965 -2.637,-1.165 -5.993,-1.888 -8.914,-2.982 -5.953,-2.22 -11.859,-5.33 -16.867,-6.942 -2.569,-0.822 -6.885,-4.199 -8.923,0 0.611,3.027 5.334,1.943 5.952,4.961 -3.004,-0.239 -7.233,-5.474 -8.933,-0.991 0.687,1.963 5.918,-0.615 4.962,2.972 -3.902,1.13 -6.89,-2.987 -7.933,0.997 0.315,2.328 3.071,2.216 3.971,3.97 -5.252,-1.175 -4.483,-2.452 -6.953,0.992 -2.459,3.436 -4.462,9.27 -7.931,6.942 2.187,-0.853 4.047,-7.129 1.991,-8.925 -2.039,4.247 -3.577,8.977 -7.932,10.905 -0.304,-1.947 1.333,-1.969 1.98,-2.971 0.803,-1.26 1.31,-3.618 1.98,-4.963 1.77,-3.547 7.104,-9.71 4.961,-12.892 -0.442,4.995 -3.262,6.34 -4.961,8.927 -2.196,3.33 -2.638,7.663 -5.947,9.919 2.533,-6.321 4.154,-9.716 6.936,-15.873 -0.168,0.385 0.618,1.153 0.992,0 0.105,-0.308 2.002,-3.809 1.991,-4.962 -0.012,-0.687 -1.16,-1.564 -1.003,-1.985 1.003,-2.562 6.629,-3.92 2.982,-6.936 -2.236,0.412 0.153,5.435 -2.982,4.962 -0.873,-2.957 3.098,-6.046 1.003,-6.948 -2.016,3.283 -2.54,8.042 -5.952,9.919 -1.364,-2.261 2.556,-3.735 0,-3.968 -2.284,4.199 -3.764,9.407 -5.947,13.887 -0.857,1.746 -1.368,3.87 -1.985,4.962 -3.251,5.683 0.859,-5.917 -0.997,-6.951 1.427,-2.188 2.417,1.249 2.982,-0.989 -0.297,-2.672 4.142,-5.665 0.988,-7.938 0.06,2.144 -1.169,7.973 -2.973,4.962 3.167,-0.746 -1.038,-7.332 0.989,-6.936 0,0.548 0.798,1.125 0.996,0 -0.066,-1.154 0.27,-2.424 0.627,-3.796 L 225.609,403.71 Z"
        style="fill:#273376;fill-opacity:1;fill-rule:nonzero;stroke:none"
        id="path115387"
        inkscape:connector-curvature="0" /><path
        d="m 537.228,251.711 c 0.005,0.701 -0.115,1.248 -0.309,1.695 h -2.865 c 0.971,-0.65 2.009,-1.24 3.174,-1.695"
        style="fill:#273376;fill-opacity:1;fill-rule:nonzero;stroke:none"
        id="path115389"
        inkscape:connector-curvature="0" /><path
        d="m 65.171,485.419 c -1.822,2.015 -1.647,1.164 -3.965,1.981 -0.014,-0.669 0.113,-1.197 0.319,-1.648 l 4.53,-2.265 c -0.331,0.783 -0.554,1.574 -0.884,1.932"
        style="fill:#273376;fill-opacity:1;fill-rule:nonzero;stroke:none"
        id="path115391"
        inkscape:connector-curvature="0" /><path
        d="m 520.737,256.145 c -0.424,0.634 -0.601,1.273 -0.364,1.91 1.17,-1.002 2.608,-2.424 4.129,-3.791 l 5.682,-2.84 c -0.613,0.957 -0.082,2.019 -0.889,2.668 0.601,-0.477 -2.27,-0.936 -1.981,0.996 5.569,-0.172 -3.445,3.351 0,3.965 1.165,-0.147 2.248,-1.766 2.972,0 -1.045,0.791 -2.741,0.933 -3.536,1.968 h 2.025 c 0.33,-0.494 0.686,-0.966 1.511,-0.974 0.103,0.349 0.146,0.67 0.166,0.974 h 1.697 c -0.598,0.581 -1.224,0.954 -1.85,1.245 -0.052,0.156 -0.106,0.314 -0.18,0.461 h -0.918 c -1.091,0.425 -2.108,0.814 -2.875,1.878 0.278,1.604 -0.028,6.948 -2.324,7.358 h -0.564 c -0.328,-0.049 -0.682,-0.168 -1.08,-0.414 1.623,0.721 4.309,-1.969 1.979,-1.981 -1.344,0.567 -2.144,1.436 -2.515,2.395 h -32.718 z"
        style="fill:#273376;fill-opacity:1;fill-rule:nonzero;stroke:none"
        id="path115393"
        inkscape:connector-curvature="0" /><path
        d="m 35.632,253.406 c -0.413,-0.277 -0.812,-0.519 -1.193,-0.699 2.36,-0.445 4.707,-0.252 7.962,0.699 z"
        style="fill:#273376;fill-opacity:1;fill-rule:nonzero;stroke:none"
        id="path115395"
        inkscape:connector-curvature="0" /><path
        d="m 76.088,480.458 c -1.015,1.824 -1.149,4.461 -1.988,5.95 -0.627,1.131 -2.446,2.069 -2.975,2.983 0.47,-0.822 1.102,3.639 -0.99,0.991 2.834,-1.153 -1.603,-1.153 -1.981,0 -0.891,-3.292 5.504,-4.304 2.971,-5.954 0.069,2.443 -2.312,1.521 -3.967,2.972 -2.831,2.497 -5.055,8.12 -7.933,6.947 3.14,-3.639 7.077,-6.486 8.605,-11.747 l 10.681,-5.34 c -0.882,1.046 -1.801,2.088 -2.423,3.198"
        style="fill:#273376;fill-opacity:1;fill-rule:nonzero;stroke:none"
        id="path115397"
        inkscape:connector-curvature="0" /><path
        d="m 424.172,149.963 c 1,1.09 4.265,4.871 1.981,5.961 0.307,-1.207 -2.861,-3.428 -2.971,-1 0.477,4.142 3.25,6.01 5.951,7.933 -2.003,0.811 0.622,5.231 0.991,6.942 -3.728,0.758 -0.68,-5.262 -4.961,-3.967 0.126,1.65 -3.211,6.309 0.99,5.953 -0.135,-1.174 -1.759,-2.246 0,-2.98 4.237,2.617 4.683,6.681 4.962,8.929 3.066,-2.738 3.818,-8.416 2.969,-10.906 -0.033,-0.121 -1.97,0.096 -1.98,0 -0.137,-2.373 1.211,-4.685 0.989,-6.937 -0.132,-1.411 -1.655,-2.09 -1.978,-3.967 -0.268,-1.617 0.207,-3.352 0,-4.963 3.89,1.361 2.922,6.201 4.959,8.93 0.632,0.828 2.06,0.88 2.789,1.728 -0.747,-0.738 -0.215,4.029 1.184,3.225 0.618,-1.694 2.994,-1.641 3.96,-2.977 -0.592,-1.486 -4.986,-4.138 -2.969,-4.959 1.48,1.168 2.796,2.492 3.96,3.967 1.137,-3.109 -1.555,-2.412 -1.979,-3.967 3.017,-3.105 4.278,5.723 7.931,1.977 0.29,6.328 3.155,10.078 8.935,10.914 1.085,2.879 1.22,6.705 4.948,6.947 -0.161,-2.557 -4.204,-6.279 -1.978,-7.941 1.666,3.515 3.552,6.924 4.961,9.914 0.516,1.107 1.772,1.851 1.981,2.986 0.034,0.201 -1.591,0.729 -0.99,1.977 0.205,0.431 1.573,1.353 1.981,1.988 1.993,3.076 2.875,6.439 5.946,7.934 1.332,-7.311 -3.326,-13.84 -1.986,-17.852 2.936,3.012 1.923,9.986 4.961,12.881 2.976,-8.018 -3.155,-17 -1.98,-22.801 2.259,4.018 1.548,8.375 2.971,12.887 0.72,2.287 3.062,4.529 3.964,6.951 1.102,2.935 0.187,4.189 0.998,5.953 1.175,2.539 3.482,5.92 3.966,7.926 0.043,0.185 0.07,0.377 0.085,0.57 l -136.131,68.065 v -93.207 c 0.389,0.261 0.775,0.533 1.168,0.775 2.443,1.51 3.395,2.625 4.96,3.959 1.096,0.949 2.896,1.029 3.968,1.994 2.532,2.246 5.388,6.303 6.947,7.924 1.375,1.441 3.029,1.935 3.961,2.984 1.176,1.307 1.76,3.453 2.977,4.957 1.255,1.541 2.8,2.438 3.967,3.971 3.354,4.379 6.578,8.977 8.925,12.887 2.213,3.677 4.282,6.629 4.963,10.904 6.004,2.258 10.67,5.857 17.85,6.951 2.481,-9.459 -1.338,-19.08 -1.987,-28.769 -0.085,-1.252 1.09,-1.362 0.991,-2.969 -0.356,-5.883 -2.183,-13.303 -0.991,-18.84 0.316,-1.478 1.773,-2.314 1.987,-3.971 0.386,-3 -1.118,-7.05 0.992,-9.92 -0.175,2.743 1.523,3.413 2.969,1.985 -0.827,-1.153 -1.306,-2.66 -0.986,-4.955 5.387,1.517 1.905,-4.535 1.982,-4.953 -0.019,0.045 1.794,-1.666 1.984,-1.987 2.371,-4.095 0.142,-8.82 -0.759,-13.816 h 4.104 c 0.121,2.045 0.045,4.287 0.618,5.875"
        style="fill:#273376;fill-opacity:1;fill-rule:nonzero;stroke:none"
        id="path115399"
        inkscape:connector-curvature="0" /><path
        d="m 186.167,176.746 c -4.789,-0.297 -9.005,-2.219 -12.895,-0.994 0.763,0.221 1.957,0.023 1.98,0.994 -4.257,-2.56 -8.095,0.117 -10.908,-2.984 16.745,-0.455 35.823,1.531 55.531,2.984 1.57,0.115 3.583,0.236 5.734,0.367 v 2.149 c -12.707,-1.596 -26.642,-1.739 -39.442,-2.516"
        style="fill:#273376;fill-opacity:1;fill-rule:nonzero;stroke:none"
        id="path115401"
        inkscape:connector-curvature="0" /><path
        d="m 36.5,259.621 c -0.028,0.01 -0.058,0.014 -0.087,0.024 -1.186,-0.649 -0.71,-0.428 0.087,-0.024"
        style="fill:#273376;fill-opacity:1;fill-rule:nonzero;stroke:none"
        id="path115403"
        inkscape:connector-curvature="0" /><path
        d="m 84.018,474.51 c -0.676,2.634 -1.565,5.056 -2.975,6.945 -1.831,-1.534 -0.785,-3.57 0.089,-5.506 l 5.294,-2.647 c -0.703,0.866 -1.498,1.355 -2.408,1.208"
        style="fill:#273376;fill-opacity:1;fill-rule:nonzero;stroke:none"
        id="path115405"
        inkscape:connector-curvature="0" /><path
        d="m 118.176,214.469 c 15.895,-3.473 31.226,-7.52 49.144,-8.965 0.139,-1.32 -4.032,-2.99 -0.99,-3.963 0.583,5.201 19.132,2.709 19.837,1.973 0.605,-0.627 -1.83,-1.914 0,-1.973 0.477,1.17 1.048,2.24 1.986,2.965 4.164,-0.961 9.778,0 12.889,0 1.047,0 2.591,-1.09 2.97,-0.992 0.314,0.09 0.651,3.605 2.981,1.99 -0.37,-3.225 -3.483,-2.018 -4.963,-2.973 -0.814,-0.531 0.316,-1.646 -0.988,-1.986 0.371,0.094 -0.513,2.207 -1.981,1.986 -1.292,-0.207 -0.933,-1.609 -1.987,-1.986 -0.283,2.037 -2.649,1.975 -3.967,2.969 -0.394,-1.703 1.47,-2.545 0,-2.969 -6.661,0.307 -10.604,0.951 -16.858,0.996 -1.732,0.004 -3.204,-1.207 -4.963,-0.996 -1.299,0.15 -1.346,1.049 -2.971,0.996 -1.794,-0.072 -2.283,-1.189 -3.971,-0.996 -0.222,0.023 -2.562,1.881 -2.97,1.986 -5.375,1.297 -10.734,0.141 -15.871,0.983 -1.538,0.256 -2.585,1.627 -3.959,1.99 -1.557,0.404 -3.403,-0.32 -4.963,0 -1.725,0.346 -3.18,2.445 -4.961,2.973 -1.212,0.361 -2.727,-0.272 -3.962,0 -0.377,0.086 -2.456,1.824 -2.981,1.978 -3.617,1.057 -5.661,0.27 -8.923,0.998 -0.548,0.119 -1.087,0.57 -1.586,1.012 l -5.117,-2.559 c -0.488,-0.732 -1.439,-1.545 -2.231,-2.422 6.883,0.87 8.48,-4.046 13.886,-1.98 -1.925,-3.315 0.359,-0.539 2.981,-0.998 1.305,-0.223 2.015,-1.709 2.983,-1.975 1.489,-0.427 3.493,0.524 4.95,0 0.266,-0.105 0.662,-1.783 0.988,-1.986 3.274,-1.986 7.35,0.082 9.925,0 1.928,-0.076 5.23,-1.539 7.925,-1.986 7.618,-1.231 13.636,-1.52 19.833,-2.973 -5.545,0.883 -3.693,-1.004 -4.958,-2.973 -3.838,1.477 -14.053,1.77 -17.839,0 9.382,-0.918 25.918,-1.142 36.693,-5.957 -4.153,-0.201 -14.979,0.879 -7.938,-1.99 -3.216,-0.557 -4.993,0.307 -5.958,1.99 0.092,-0.32 -2.221,-3.088 -3.961,-1.99 -0.629,0.412 1.851,2.035 0,1.99 -0.518,-0.013 -1.166,-2.033 -2.975,-1.99 -3.553,0.113 -6.879,3.967 -10.91,1.99 1.171,-0.148 2.818,0.172 2.977,-0.986 -14.958,1.113 -30.955,4.662 -43.639,4.959 1.479,0.162 3.669,-0.358 3.971,0.994 -8.491,-0.553 -14.898,6.24 -21.817,3.963 5.481,-1.793 11.602,-2.945 16.855,-4.957 -1.759,-0.231 -4.963,0.998 -3.972,-1.996 2.621,-1.535 16.207,-3.908 15.875,-0.981 -2.025,-0.851 -5.473,1.563 -2.981,1.977 3.832,-2.729 8.399,-1.941 12.894,-2.973 0.292,-0.062 1.514,-1.885 1.992,-1.99 1.748,-0.34 4.007,0.555 5.941,0 1.351,-0.373 2.866,-2.525 3.972,-2.961 3.262,-1.314 5.837,-0.392 8.922,-0.992 2.412,1.334 0.616,1.976 1.987,2.969 2.498,0.373 4.391,-1.6 6.942,-1.977 3.663,-0.562 8.479,1.022 13.885,0.984 6.796,-0.035 15.31,-1.408 21.812,0 0.54,0.124 -0.17,1.887 1,1.977 5.091,0.451 13.639,-1.422 20.814,-0.984 2.21,0.138 4.088,0.304 5.734,0.367 v 84.137 z"
        style="fill:#273376;fill-opacity:1;fill-rule:nonzero;stroke:none"
        id="path115407"
        inkscape:connector-curvature="0" /><path
        d="m 527.314,269.568 c 5.504,1.2 6.024,-2.576 8.922,-3.966 -0.614,3.291 -3.136,4.677 -5.364,6.361 h -4.288 c 0.441,-0.6 0.731,-1.352 0.73,-2.395"
        style="fill:#273376;fill-opacity:1;fill-rule:nonzero;stroke:none"
        id="path115409"
        inkscape:connector-curvature="0" /><path
        d="m 553.093,426.264 c -2.114,0.548 -4.593,0.592 -7.23,0.44 0.095,0.069 0.199,0.13 0.288,0.208 h -2.971 c 0.043,0.042 0.069,0.073 0.107,0.114 l -3.328,-1.665 c 4.85,-0.174 10.167,-0.817 13.134,0.903"
        style="fill:#273376;fill-opacity:1;fill-rule:nonzero;stroke:none"
        id="path115411"
        inkscape:connector-curvature="0" /><path
        d="m 47.396,271.963 c -1.401,-0.647 -2.771,-1.406 -4.036,-2.395 -0.744,-3.056 2.721,-1.904 1.981,-4.963 -1.619,-0.232 -4.291,-2.255 -6.33,-3.584 -0.21,-0.136 -0.416,-0.269 -0.613,-0.39 -0.344,-0.201 -1.232,-0.67 -1.898,-1.01 3.245,-0.781 6.089,2.543 3.878,-0.967 1.706,0.942 3.447,1.67 4.83,2.367 0.409,0.208 0.79,0.411 1.123,0.614 -0.524,-0.326 -0.71,0.465 0,0.998 1.49,1.099 4.31,2.23 4.961,0.984 -0.051,0.098 -3.097,-1.512 -2.975,-1.982 1.74,-0.893 3.141,2.521 3.844,0.445 -3.251,-0.359 -4.283,-2.939 -6.82,-4.025 4.065,-1.03 8.114,3.062 10.909,0 -2.021,0.851 -6.156,-0.856 -2.977,-1.971 0.011,1.291 2.749,1.256 2.977,0 -2.708,0.715 -1.997,-1.977 -3.966,-1.992 -1.938,2.414 -9.623,0.976 -9.756,-1.479 -0.877,-0.478 -1.624,-1.07 -2.15,-1.886 1.868,-0.666 2.632,-0.729 2.997,-0.565 -0.004,-0.012 -0.01,-0.019 -0.015,-0.031 1.81,0.08 2.831,0.369 3.437,0.742 0.168,-0.039 0.344,-0.09 0.53,-0.146 0.385,1.38 0.784,1.929 1.222,2.199 0.705,-0.143 2.513,-0.209 3.735,0.174 -0.023,-0.026 -0.035,-0.043 -0.058,-0.067 l 37.86,18.93 z"
        style="fill:#273376;fill-opacity:1;fill-rule:nonzero;stroke:none"
        id="path115413"
        inkscape:connector-curvature="0" /><path
        d="m 528.304,453.689 c 1.46,0.24 3.537,1.68 4.951,1.983 2.321,0.482 6.773,-1.908 6.954,1.985 -3.09,-1.06 -6.161,-1.225 -9.205,-1.005 l -5.813,-2.907 c 0.986,-0.109 1.982,-0.245 3.113,-0.056"
        style="fill:#ffffff;fill-opacity:1;fill-rule:nonzero;stroke:none"
        id="path115415"
        inkscape:connector-curvature="0" /><path
        d="m 55.064,453.215 -2.806,1.403 v 0 l 2.806,-1.404 z"
        style="fill:#ffffff;fill-opacity:1;fill-rule:nonzero;stroke:none"
        id="path115417"
        inkscape:connector-curvature="0" /><path
        d="m 532.267,250.131 c -1.192,0.359 -1.779,0.812 -2.083,1.293 l -5.682,2.84 c 2.662,-2.395 5.578,-4.623 7.765,-4.133"
        style="fill:#ffffff;fill-opacity:1;fill-rule:nonzero;stroke:none"
        id="path115419"
        inkscape:connector-curvature="0" /><path
        d="m 58.23,456.667 c 0.276,1.264 0.995,1.369 0.995,2.976 0,5.672 -1.351,-2.278 -0.995,-1.986 -0.746,-0.624 -4.805,3.993 -4.957,2.969 0.098,-2.686 3.226,-5.288 3.192,-8.111 l 5.944,-2.973 c -0.917,3.645 -1.833,7.683 -4.179,7.125"
        style="fill:#ffffff;fill-opacity:1;fill-rule:nonzero;stroke:none"
        id="path115421"
        inkscape:connector-curvature="0" /><path
        d="m 118.701,399.936 -65.025,32.512 c 0.546,-2.083 1.006,-4.308 1.386,-6.462 h 1.18 c -0.02,-1.772 -1.193,-4.988 -0.989,-6.678 0.098,-0.76 0.308,-1.501 0.554,-2.235 l 34.274,-17.137 z"
        style="fill:#ffffff;fill-opacity:1;fill-rule:nonzero;stroke:none"
        id="path115423"
        inkscape:connector-curvature="0" /><path
        d="m 161.624,399.936 -98.063,49.03 98.061,-49.03 z"
        style="fill:#ffffff;fill-opacity:1;fill-rule:nonzero;stroke:none"
        id="path115425"
        inkscape:connector-curvature="0" /><path
        d="M 417.572,399.936 517.962,450.13 417.57,399.936 Z"
        style="fill:#ffffff;fill-opacity:1;fill-rule:nonzero;stroke:none"
        id="path115427"
        inkscape:connector-curvature="0" /><path
        d="m 225.609,399.936 v 3.774 L 89.608,471.711 c 0.555,-2.135 1.156,-4.521 0.361,-7.12 -0.861,2.908 -1.967,6.766 -3.543,8.711 l -5.294,2.647 c 0.757,-1.674 1.386,-3.274 -0.089,-4.408 0.359,2.152 -1.032,3.94 -2.532,5.719 L 67.83,482.6 c 0.11,-0.38 0.24,-0.739 0.324,-1.145 -1.137,0.152 -1.699,1.087 -2.099,2.032 l -4.53,2.265 c 1.142,-2.496 5.029,-2.252 4.644,-6.286 0.296,-2.283 -2.866,-1.093 -2.978,-2.967 1.266,-1.452 4.474,-6.012 2.978,-6.943 -2.732,1.891 -5.918,3.347 -6.944,6.943 -5.567,0.172 3.449,-3.345 0,-3.975 -0.01,1.003 -1.741,1.254 -1.986,0 2.989,-2.977 9.011,-8.153 6.95,-12.881 -0.653,3.319 -3.799,4.135 -4.964,6.937 0.571,-5.811 4.561,-12.222 4.336,-17.614 l 98.063,-49.03 z"
        style="fill:#ffffff;fill-opacity:1;fill-rule:nonzero;stroke:none"
        id="path115429"
        inkscape:connector-curvature="0" /><path
        d="m 353.582,399.936 h 21.066 l 125.011,62.505 c -4.471,-0.561 -10.555,-2.097 -13.997,0.17 5.142,1.62 10.261,-1.197 14.876,1.98 -3.134,2.117 -9.333,-3.33 -4.964,1.989 -3.33,0.618 -9.207,-1.276 -10.91,0.996 1.654,0.109 8.99,-0.549 5.952,0.983 -1.817,0.259 -3.493,0.663 -5.133,1.103 L 353.582,403.711 Z"
        style="fill:#ffffff;fill-opacity:1;fill-rule:nonzero;stroke:none"
        id="path115431"
        inkscape:connector-curvature="0" /><path
        d="m 52.284,454.681 c -0.012,-0.023 -0.015,-0.041 -0.026,-0.063 l 2.806,-1.403 c -0.347,1.065 -1.123,1.702 -2.78,1.466"
        style="fill:#ffffff;fill-opacity:1;fill-rule:nonzero;stroke:none"
        id="path115433"
        inkscape:connector-curvature="0" /><path
        d="m 526.409,425.986 h 12.039 c -4.296,-0.469 -8.548,-0.811 -12.039,0 m -37.301,-26.05 48.563,24.281 c -1.07,0.087 -2.02,0.293 -2.424,1.044 1.44,0.165 3.048,0.159 4.712,0.1 l 3.328,1.665 c 2.359,2.385 -2.368,0.993 -1.098,4.84 1.969,-0.008 1.258,-2.7 3.962,-1.98 0.443,3.746 -5.172,1.429 -5.942,3.969 3.903,-0.276 6.884,0.378 7.933,2.968 -3.435,0.537 -9.413,-1.473 -9.923,1.988 7.501,0.438 13.003,2.862 17.855,5.945 -2.633,-1.178 -5.51,0.187 -8.924,0 -10.301,-0.548 -24.021,-3.378 -27.765,3.966 1.897,0.821 9.85,0.641 7.929,1.991 -3.283,0.765 -6.474,-0.069 -9.352,-0.583 l -100.39,-50.194 z"
        style="fill:#ffffff;fill-opacity:1;fill-rule:nonzero;stroke:none"
        id="path115435"
        inkscape:connector-curvature="0" /><path
        d="m 90.086,271.963 -37.86,-18.93 c -3.915,-4.094 4.024,-1.803 5.013,-3.896 -1.438,-0.537 -5.118,1.16 -4.955,-0.996 3.786,-1.715 6.523,1.693 6.941,-2.977 -3.226,-0.076 -6.102,-0.5 -7.933,-1.976 3.694,-1.665 6.233,1.539 9.914,1.976 -0.082,0 2.521,-1.094 3.965,-0.986 6.261,0.461 10.373,1.095 15.872,-1.981 -4.455,-2.224 -8.795,3.692 -10.908,-1.984 3.97,1.297 6.521,-1.711 8.928,-1.986 2.049,-0.223 4.379,1.962 5.951,0 -8.084,-3.674 -11.986,3.605 -20.825,0 -2.757,1.486 1.716,4.052 -0.998,4.961 -1.526,-2.081 -5.886,-0.36 -1.985,-2.975 -3.074,-0.113 -2.831,3.113 -6.942,1.984 -1.176,-4.154 4.181,-1.775 4.961,-3.97 -4.001,1.043 -1.24,-2.161 -2.975,-2.973 -2.808,-1.326 -6.209,1.582 -10.909,-0.994 5.668,-0.467 5.8,-0.317 9.912,-1.977 -0.482,3.264 5.726,4.147 5.953,0.987 -1.165,-0.155 -2.807,0.168 -2.976,-0.987 1.882,-1.877 5.783,3.485 7.939,-0.992 -1.877,-0.223 -2.191,1.109 -3.966,0.992 -0.822,-3.619 4.036,-2.111 4.955,-2.984 0.617,-0.572 -1.828,-1.945 0,-1.981 2.637,2.565 4.198,1.412 5.918,0.37 l 88.55,44.275 z"
        style="fill:#ffffff;fill-opacity:1;fill-rule:nonzero;stroke:none"
        id="path115437"
        inkscape:connector-curvature="0" /><path
        d="m 225.609,271.963 h -21.06 L 105.64,222.508 c 0.067,-0.051 0.134,-0.092 0.202,-0.143 -0.215,-0.041 -0.441,-0.072 -0.675,-0.094 l -2.842,-1.419 c 3.943,0.222 7.496,0.605 10.448,-2.457 -1.76,-0.227 -4.964,0.998 -3.961,-1.985 3.159,-0.609 6.271,-1.265 9.364,-1.941 l 107.433,53.717 z"
        style="fill:#ffffff;fill-opacity:1;fill-rule:nonzero;stroke:none"
        id="path115439"
        inkscape:connector-curvature="0" /><path
        d="m 525.191,453.745 5.813,2.907 z"
        style="fill:#ffffff;fill-opacity:1;fill-rule:nonzero;stroke:none"
        id="path115441"
        inkscape:connector-curvature="0" /><path
        d="m 460.493,271.963 81.905,-40.953 c 0.57,0.008 1.157,0.09 1.773,0.281 -2.811,1.484 -4.584,4.004 -8.924,3.963 -3.446,3.65 -6.744,7.523 -10.91,10.91 -0.899,0.723 -3.637,0.936 -4.952,1.977 -1.459,1.148 -2.821,3.072 -2.985,4.959 3.704,-0.637 4.867,-4.379 8.931,-1.981 1.168,-1.869 5.142,-6.019 6.936,-3.963 -1.658,1.608 -4.566,2.992 -6.936,4.955 -1.548,1.28 -3.664,2.647 -4.594,4.034 l -31.633,15.818 z"
        style="fill:#ffffff;fill-opacity:1;fill-rule:nonzero;stroke:none"
        id="path115443"
        inkscape:connector-curvature="0" /><path
        d="m 353.582,271.963 v -3.779 l 136.131,-68.065 c 0.114,1.428 -0.43,3.024 -0.085,4.387 0.1,0.392 1.857,2.43 1.981,2.978 0.645,2.846 0.099,6.073 0.995,8.926 0.092,0.278 1.865,0.588 1.982,0.99 1.102,4.065 0.312,5.852 0.988,8.926 0.446,1.992 1.064,3.899 1.731,5.77 l -79.736,39.867 z"
        style="fill:#ffffff;fill-opacity:1;fill-rule:nonzero;stroke:none"
        id="path115445"
        inkscape:connector-curvature="0" /><path
        d="m 112.773,213.432 c -1.807,0.24 -2.237,-0.928 -3.961,-0.987 -1.113,-0.043 -1.538,1.395 -1.992,0 2.698,-0.679 2.899,-1.535 2.231,-2.539 l 5.117,2.559 c -0.523,0.465 -1.002,0.92 -1.395,0.967"
        style="fill:#ffffff;fill-opacity:1;fill-rule:nonzero;stroke:none"
        id="path115447"
        inkscape:connector-curvature="0" /><path
        d="m 62.409,449.542 -5.944,2.973 5.945,-2.973 z"
        style="fill:#ffffff;fill-opacity:1;fill-rule:nonzero;stroke:none"
        id="path115449"
        inkscape:connector-curvature="0" /><path
        d="m 531.004,456.652 -5.813,-2.907"
        style="fill:none;stroke:#110f0d;stroke-width:0.75;stroke-linecap:round;stroke-linejoin:round;stroke-miterlimit:4;stroke-dasharray:none;stroke-opacity:1"
        id="path115451"
        inkscape:connector-curvature="0" /><path
        d="m 55.064,453.215 -2.806,1.403"
        style="fill:none;stroke:#110f0d;stroke-width:0.75;stroke-linecap:round;stroke-linejoin:round;stroke-miterlimit:4;stroke-dasharray:none;stroke-opacity:1"
        id="path115453"
        inkscape:connector-curvature="0" /><path
        d="m 62.409,449.542 -5.944,2.973"
        style="fill:none;stroke:#110f0d;stroke-width:0.75;stroke-linecap:round;stroke-linejoin:round;stroke-miterlimit:4;stroke-dasharray:none;stroke-opacity:1"
        id="path115455"
        inkscape:connector-curvature="0" /><path
        d="m 417.572,399.936 100.39,50.194"
        style="fill:none;stroke:#110f0d;stroke-width:0.75;stroke-linecap:round;stroke-linejoin:round;stroke-miterlimit:4;stroke-dasharray:none;stroke-opacity:1"
        id="path115457"
        inkscape:connector-curvature="0" /><path
        d="m 63.561,448.966 98.063,-49.03"
        style="fill:none;stroke:#110f0d;stroke-width:0.75;stroke-linecap:round;stroke-linejoin:round;stroke-miterlimit:4;stroke-dasharray:none;stroke-opacity:1"
        id="path115459"
        inkscape:connector-curvature="0" /><path
        d="m 94.928,221.379 c 2.573,-0.738 5.053,-0.66 7.397,-0.527 l 2.842,1.419 c -3.407,-0.314 -8.649,1.213 -10.239,-0.892"
        style="fill:#d21d2c;fill-opacity:1;fill-rule:nonzero;stroke:none"
        id="path115461"
        inkscape:connector-curvature="0" /><path
        d="m 161.626,271.963 -88.55,-44.275 c 1.36,-0.825 2.82,-1.579 4.99,-0.37 -0.465,-4.107 4.642,-2.632 6.948,-3.972 0.107,1.211 0.285,2.353 1.982,1.986 2.166,-0.221 5.334,-4.478 6.941,-1.986 -1.708,-0.047 -2.551,0.771 -2.976,1.986 6.625,1.356 10.56,0.307 14.679,-2.824 l 98.909,49.455 z"
        style="fill:#d21d2c;fill-opacity:1;fill-rule:nonzero;stroke:none"
        id="path115463"
        inkscape:connector-curvature="0" /><path
        d="m 161.622,399.936 -98.061,49.03 c -0.032,-0.763 -0.147,-1.507 -0.37,-2.224 -0.28,0.835 -0.531,1.803 -0.781,2.8 l -5.945,2.973 c -0.012,-0.906 -0.343,-1.834 -1.212,-2.796 0.093,1.322 0.113,2.569 -0.189,3.495 l -2.806,1.404 c -1.117,-2.328 2.374,-2.03 2.006,-3.905 -0.064,-0.343 -2.401,-1.031 -1.98,-1.991 0.26,-0.582 3.633,-0.279 2.969,-1.98 -2.056,-0.554 -2.096,-1.549 -0.989,-2.977 -1.205,0.315 -3.414,-2.865 -0.991,-2.974 0.222,0.774 0.024,1.962 0.991,1.985 0.57,-3.21 -0.298,-4.989 -1.98,-5.953 0.52,-1.308 0.98,-2.802 1.392,-4.375 l 65.025,-32.512 z"
        style="fill:#d21d2c;fill-opacity:1;fill-rule:nonzero;stroke:none"
        id="path115465"
        inkscape:connector-curvature="0" /><path
        d="m 417.57,399.936 100.392,50.194 c -2.449,-0.436 -4.67,-0.64 -6.518,0.583 4.059,-1.197 7.247,2.097 10.914,2.976 1,0.237 1.911,0.158 2.833,0.056 l 5.813,2.907 c -4.952,0.358 -9.831,1.743 -14.604,1.994 -3.04,0.159 -6.556,-1.387 -9.911,-0.989 -1.94,0.22 -4.259,0.891 -5.951,1.986 -1.97,2.283 0.247,1.088 0.99,2.968 -0.578,-0.025 -1.206,-0.087 -1.869,-0.17 L 374.648,399.936 Z"
        style="fill:#d21d2c;fill-opacity:1;fill-rule:nonzero;stroke:none"
        id="path115467"
        inkscape:connector-curvature="0" /><path
        d="m 417.569,271.963 79.736,-39.867 c 1.686,4.734 3.709,9.213 4.223,14.068 2.817,0.834 6.015,1.875 6.938,0.992 0.817,-0.775 0.91,-0.299 1.988,-0.992 0.88,-0.568 2.481,-2.697 2.975,-2.976 1.701,-0.977 4.124,-0.883 5.956,-1.987 1.564,-0.941 2.787,-3.422 3.962,-3.965 2.637,-1.207 6.245,-0.961 8.92,-1.982 4.107,-1.559 6.8,-4.295 10.131,-4.244 l -81.905,40.953 z"
        style="fill:#d21d2c;fill-opacity:1;fill-rule:nonzero;stroke:none"
        id="path115469"
        inkscape:connector-curvature="0" /><path
        d="m 523.438,271.963 h 0.564 c -0.176,0.031 -0.364,0.031 -0.564,0"
        style="fill:#ffffff;fill-opacity:1;fill-rule:nonzero;stroke:none"
        id="path115471"
        inkscape:connector-curvature="0" /><path
        d="m 327.987,374.34 h 199.329 c -0.356,2.52 0.272,5.679 1.979,6.303 8.322,-0.175 13.426,2.467 19.838,2.972 5.794,0.448 10.971,-0.855 12.891,1.985 -7.3,0.769 -9.736,-2.443 -14.874,0 1.866,0.518 8.07,1.734 5.943,2.972 -1.165,-0.149 -2.247,-1.761 -2.972,0 -0.221,3.574 9.6,2.241 6.944,4.953 -4.218,-0.22 -13.588,-2.019 -20.829,0 3.927,0.025 4.351,2.827 2.982,3.974 0.422,-1.644 -3.703,0.086 -3.971,0.988 1.482,0.181 3.658,-0.353 3.971,0.992 -1.355,-0.205 -2.283,0.016 -2.99,0.457 h -47.12 -71.536 -0.002 -42.922 -21.066 v 3.775 114.727 c -4.071,0.099 -8.067,0.101 -11.717,-0.293 -2.863,-0.309 -6.008,-1.746 -8.932,-1.98 -1.637,-0.133 -3.288,-0.156 -4.946,-0.13 z"
        style="fill:#ffffff;fill-opacity:1;fill-rule:nonzero;stroke:none"
        id="path115473"
        inkscape:connector-curvature="0" /><path
        d="M 251.203,297.557 H 59.139 c -0.05,-1.371 -0.069,-2.76 0.086,-4.192 0.374,-3.5 2.585,-8.066 1.981,-10.904 -1.515,-7.092 -7.935,-7.787 -13.81,-10.498 h 42.69 71.54 42.923 21.06 v -3.777 -84.137 c 4.02,0.152 6.635,-0.315 9.141,-3.336 -2.94,-0.604 -6.014,-1.059 -9.141,-1.451 v -2.149 c 3.035,0.186 6.351,0.389 9.141,0.621 4.858,0.405 10.679,1.586 16.453,2.528 z"
        style="fill:#ffffff;fill-opacity:1;fill-rule:nonzero;stroke:none"
        id="path115475"
        inkscape:connector-curvature="0" /><path
        d="m 353.582,271.963 h 63.987 42.924 28.611 32.718 c -0.451,1.168 -0.252,2.473 0.536,3.557 1.055,-1.536 3.124,-2.064 4.226,-3.557 h 4.288 c -0.973,0.736 -1.892,1.528 -2.568,2.562 1.317,2.426 3.692,-1.089 3.963,0.995 -4.375,3.552 -8.934,6.924 -12.882,10.9 5.437,1.477 4.343,-3.58 7.929,-3.959 2.643,-0.114 -2.735,3.887 -0.988,3.959 1.258,0.059 3.402,-7.027 6.929,-3.959 -4.786,2.803 -6.896,8.301 -10.897,11.893 1.161,1.14 3.506,1.13 5.946,0.998 -0.892,-2.989 2.337,-1.661 3.963,-2.983 2.579,-2.069 4.565,-7.24 6.951,-5.949 -4.053,3.621 -8.577,8.965 -12.892,10.905 -0.102,0.047 -0.228,0.136 -0.358,0.232 H 327.987 v -133.86 c 2.38,1.307 4.669,2.703 8.917,2.135 -0.147,-1.174 -1.769,-2.246 0,-2.975 2.802,3.543 7.612,5.055 9.911,6.942 2.371,1.93 4.558,3.689 6.767,5.178 v 93.207 z"
        style="fill:#ffffff;fill-opacity:1;fill-rule:nonzero;stroke:none"
        id="path115477"
        inkscape:connector-curvature="0" /><path
        d="m 251.203,374.34 v 135.03 c -1.897,-0.476 -3.787,-0.991 -5.538,-1.139 -5.546,-0.47 -11.438,0.512 -16.852,0 -1.031,-0.098 -2.105,-0.28 -3.204,-0.498 V 403.71 399.936 h -63.985 -0.002 -42.921 -28.62 -31.87 c -0.171,-1.32 -1.14,-3.059 -0.972,-4.417 0.036,-0.268 1.824,-1.185 1.986,-1.994 -0.01,0.054 -1.298,-1.582 -0.995,-2.969 1.029,-4.615 1.802,-10.302 2.059,-16.216 z"
        style="fill:#ffffff;fill-opacity:1;fill-rule:nonzero;stroke:none"
        id="path115479"
        inkscape:connector-curvature="0" /><path
        d="m 327.987,297.557 h 197.981 c -1.12,0.822 -3.115,3.217 -3.61,3.744 -1.152,1.207 -1.356,3.247 -2.973,3.969 3.534,0.506 6.031,-5.133 7.929,-2.978 -0.85,1.225 -6.39,2.745 -3.967,3.966 2.161,-1.187 5.768,-6.073 7.928,-3.966 -1.921,-0.117 -2.942,2.12 -3.961,2.978 -1.27,1.051 -4.152,1.641 -3.967,3.964 3.349,1.586 4.227,-4.21 5.948,-0.995 -3.527,1.439 -5.9,4.021 -7.932,6.948 2.306,0.328 4.276,1.013 4.963,2.971 -4.125,0.18 -5.457,-1.715 -7.941,0.995 -0.72,1.986 1.905,1.923 1.988,2.977 -0.025,-0.262 -1.893,0.546 -1.988,0.989 -0.377,1.824 1.586,4.519 1.988,6.937 -3.923,-1.308 -1.504,10.312 -0.988,10.921 0.558,0.652 3.264,-0.572 2.973,0.981 -1.704,-0.058 -2.544,0.77 -2.973,1.981 3.763,4.16 -0.226,16.093 6.941,16.866 -1.097,5.394 2.091,6.495 3.96,8.919 -1.707,0.397 -2.541,-1.466 -2.972,0 5.984,2.702 13.187,-1.481 17.847,2.975 -6.488,0.537 -11.29,-0.604 -16.857,-0.991 -0.506,0.594 -0.835,1.556 -0.988,2.632 H 327.987 v 141.695 c -5.32,0.081 -10.704,0.703 -15.881,0.13 -4.155,-0.465 -7.653,-2.511 -11.888,-2.971 -9.112,-0.997 -18.759,0.209 -27.779,-1.003 -2.115,-0.274 -3.828,-1.606 -5.946,-1.98 -3.991,-0.693 -8.91,0.187 -10.916,0 -1.421,-0.127 -2.899,-0.472 -4.374,-0.841 V 374.34 H 60.289 c 0.137,-3.169 0.134,-6.4 -0.073,-9.572 -1.875,0.114 -0.693,3.278 -2.977,2.975 -0.017,-4.456 3.676,-7.191 0,-9.919 3.303,0.687 1.592,-2.043 0.991,-2.969 5.959,-0.452 2.264,-2.438 1.986,-5.954 3.785,-2.152 3.11,0.913 4.955,2.983 0.682,-6.401 -0.646,-11.461 2.983,-11.909 -4.071,-2.848 -0.368,-9.746 0,-14.864 0.052,-0.92 -0.99,-1.839 -0.996,-1.992 -0.059,-2.38 2.877,-6.006 0,-6.942 -1.007,4.066 -1.741,8.579 -1.987,10.91 -0.5,4.807 0.846,12.14 -3.965,12.888 0.664,-11.569 2.843,-26.899 1.985,-36.692 0.053,1.858 -0.763,2.101 -1.985,0.999 0.058,1.265 1.27,1.367 0.997,2.971 -2.709,0.087 -2.005,-1.657 -3.973,0 1.334,-3.274 1.026,-6.426 0.909,-9.696 H 251.203 V 180.262 c 7.122,1.16 14.173,1.951 19.254,0.451 -0.763,0.223 -2.073,-0.977 -1.979,-1.002 2.056,-0.402 3.523,1.84 4.957,0 -2.535,-0.443 -4.565,-1.393 -5.952,-2.965 3.527,-0.842 5.939,2.875 6.94,-0.994 -4.788,-0.176 -6.767,-3.152 -9.919,-4.953 4.702,0.504 3.96,1.242 1.989,-1.994 2.818,0.172 4.133,1.814 6.942,1.994 0.005,-1 -0.806,-1.188 -0.996,-1.994 3.335,-0.108 6.12,2.881 7.93,1.994 0.306,-0.153 -1.036,-1.994 -0.984,-1.994 2.727,-0.135 3.366,0.675 6.944,0.994 -0.057,-1.268 -1.271,-1.371 -0.998,-2.971 3.53,-1.545 0.615,3.367 2.978,2.971 2.056,-0.594 6.518,1.224 6.947,-0.994 -2.813,0.828 -2.579,-1.399 -4.961,-0.991 -1.23,-3.207 3.208,-0.761 1.984,-3.966 -1.617,0.724 -4.321,-1.969 -1.984,-1.981 0.133,1.633 6.81,1.633 6.936,0 -2.739,1.307 -3.395,-3.928 -1.975,-0.992 2.895,-0.264 3.042,2.242 5.946,1.982 -0.302,-1.197 2.868,-3.418 2.976,-0.99 -5.271,1.656 5.866,1.977 8.917,1.981 -1.67,-3.453 -0.36,-3.467 1.993,-4.963 -1.667,-1.367 -6.582,-4.578 -4.963,-5.947 3.017,4.097 12.691,5.119 12.896,8.929 2.007,0.258 3.504,1.028 4.966,1.83 z"
        style="fill:#d21d2c;fill-opacity:1;fill-rule:nonzero;stroke:none"
        id="path115481"
        inkscape:connector-curvature="0" /></g></g></g></svg>