<svg xmlns="http://www.w3.org/2000/svg" viewBox="0 0 250 250"><g transform="matrix(0.625,0,0,0.625,0,0)"><g transform="matrix(6.25,0,0,6.25,0,0)"><defs><style>.cls-1{fill:#e4e4e4;stroke:#e4e4e4;}.cls-1,.cls-10,.cls-11,.cls-12,.cls-13,.cls-14,.cls-15,.cls-16,.cls-17,.cls-19,.cls-2,.cls-3,.cls-4,.cls-5,.cls-6,.cls-7,.cls-8,.cls-9{stroke-linecap:round;stroke-linejoin:round;}.cls-2{fill:#f1f1f1;}.cls-11,.cls-12,.cls-13,.cls-14,.cls-15,.cls-2,.cls-3,.cls-4,.cls-5,.cls-6,.cls-7,.cls-8{stroke:#231f20;}.cls-19,.cls-3{fill:none;}.cls-4{fill:#b1b1b1;}.cls-5{fill:#1e9cdd;}.cls-6{fill:#33ddff;}.cls-7{fill:#f4f4f4;}.cls-18,.cls-8{fill:#ffffff;}.cls-9{fill:#ff5500;stroke:#ff5500;}.cls-10,.cls-14{fill:#ffc700;}.cls-10{stroke:#ffc700;}.cls-11{fill:#333333;}.cls-12{fill:#ff8b00;}.cls-13{fill:gray;}.cls-15{fill:#ff3446;}.cls-16{fill:#e62234;stroke:#e62234;}.cls-17{fill:#c8d4fa;stroke:#c8d4fa;}.cls-19{stroke:#ffffff;}</style></defs><g id="Rocket_launch" data-name="Rocket launch"><circle class="cls-1" cx="33" cy="47" r="3"></circle><circle class="cls-1" cx="26" cy="47" r="5"></circle><circle class="cls-1" cx="48" cy="47" r="3"></circle><circle class="cls-1" cx="58" cy="52" r="3"></circle><circle class="cls-1" cx="54" cy="47" r="5"></circle><path class="cls-1" d="M16.94732,53.44616a4.07493,4.07493,0,0,0-.63821.05015,4.55418,4.55418,0,0,0-8.7243.95225l-.0332-.00017A3.55561,3.55561,0,0,0,4,58H21v-.50107A4.05737,4.05737,0,0,0,16.94732,53.44616Z"></path><rect class="cls-2" x="13" y="13" width="12" height="42"></rect><line class="cls-3" x1="13" y1="19" x2="25" y2="19"></line><line class="cls-3" x1="13" y1="31" x2="25" y2="31"></line><line class="cls-3" x1="13" y1="43" x2="25" y2="43"></line><rect class="cls-4" x="7" y="13" width="6" height="42"></rect><line class="cls-3" x1="13" y1="19" x2="7" y2="19"></line><line class="cls-3" x1="13" y1="13" x2="7" y2="13"></line><line class="cls-3" x1="13" y1="31" x2="7" y2="31"></line><line class="cls-3" x1="13" y1="43" x2="7" y2="43"></line><path class="cls-5" d="M8,11H24a1,1,0,0,1,1,1v1a0,0,0,0,1,0,0H7a0,0,0,0,1,0,0V12A1,1,0,0,1,8,11Z"></path><path class="cls-6" d="M14,11H24a1,1,0,0,1,1,1v1a0,0,0,0,1,0,0H13a0,0,0,0,1,0,0V12A1,1,0,0,1,14,11Z"></path><path class="cls-4" d="M11,9h7a1,1,0,0,1,1,1v1a0,0,0,0,1,0,0H10a0,0,0,0,1,0,0V10A1,1,0,0,1,11,9Z"></path><path class="cls-7" d="M14,9h4a1,1,0,0,1,1,1v1a0,0,0,0,1,0,0H13a0,0,0,0,1,0,0V10A1,1,0,0,1,14,9Z"></path><line class="cls-3" x1="14" y1="9" x2="14" y2="7"></line><rect class="cls-6" x="13" y="55" width="12" height="3"></rect><rect class="cls-5" x="7" y="55" width="6" height="3"></rect><path class="cls-8" d="M20,55a3.00028,3.00028,0,0,1,4.17334-2.76117,4.98009,4.98009,0,0,1,9.08636-3.825l.05315-.02549A4.88535,4.88535,0,0,0,36,45H47a4.87836,4.87836,0,0,0,2.68708,3.3883l.05322.02552a4.97346,4.97346,0,0,1,9.08636,3.825A3.00006,3.00006,0,1,1,60,58H23A3,3,0,0,1,20,55Z"></path><path class="cls-9" d="M42,55l-2.92893-2.92893a4.14214,4.14214,0,1,1,5.85786,0Z"></path><path class="cls-10" d="M42,49.41421l-.70711-.7071a1,1,0,1,1,1.41422,0Z"></path><path class="cls-11" d="M3,58H61a2,2,0,0,1,2,2v3a0,0,0,0,1,0,0H1a0,0,0,0,1,0,0V60A2,2,0,0,1,3,58Z"></path><rect class="cls-12" x="1" y="60" width="62" height="3"></rect><path class="cls-13" d="M17,58H61a2,2,0,0,1,2,2v3a0,0,0,0,1,0,0H15a0,0,0,0,1,0,0V60A2,2,0,0,1,17,58Z"></path><rect class="cls-14" x="15" y="60" width="48" height="3"></rect><path class="cls-8" d="M26,55.00682a2.86239,2.86239,0,0,1,3.31124-2.82536,3.21468,3.21468,0,0,1,6.1583.67214l.02344-.0001A2.50987,2.50987,0,0,1,38,55.36052"></path><path class="cls-8" d="M42,55.36052a2.63757,2.63757,0,0,1,3.47272-2.50371q-.00985-.13112-.00981-.26264a3.62406,3.62406,0,0,1,7.19577-.61357,3.10056,3.10056,0,0,1,1.20967-.24391A3.13522,3.13522,0,0,1,57,54.86834"></path><path class="cls-15" d="M34,43H49a0,0,0,0,1,0,0v0a2,2,0,0,1-2,2H36a2,2,0,0,1-2-2v0A0,0,0,0,1,34,43Z"></path><path class="cls-16" d="M36.5,43H34a2,2,0,0,0,2,2h2.5A2,2,0,0,1,36.5,43Z"></path><path class="cls-3" d="M34,43H49a0,0,0,0,1,0,0v0a2,2,0,0,1-2,2H36a2,2,0,0,1-2-2v0A0,0,0,0,1,34,43Z"></path><polygon class="cls-8" points="49 43 34 43 35 41 48 41 49 43"></polygon><polygon class="cls-17" points="35 41 34 43 37 43 38 41 35 41"></polygon><polygon class="cls-3" points="49 43 34 43 35 41 48 41 49 43"></polygon><path class="cls-15" d="M49,32.80265l6.47,4.04375a1,1,0,0,0,1.53-.848V33.20577a4,4,0,0,0-.87652-2.49878L49,21.80265Z"></path><path class="cls-18" d="M42,1C36.37488,4,32,14.412,32,23.42218L32,37a4,4,0,0,0,4,4H48a4,4,0,0,0,4-4l0-13.57782C52,14.412,47.62512,4,42,1Z"></path><path class="cls-1" d="M35,37V23.42218C35,14.412,37,6,42,1,36.37488,4,32,14.412,32,23.42218V37a4,4,0,0,0,4,4h2.4C36.52222,41,35,39.20911,35,37Z"></path><path class="cls-3" d="M42,1C36.37488,4,32,14.412,32,23.42218V37a4,4,0,0,0,4,4H48a4,4,0,0,0,4-4V23.42218C52,14.412,47.62512,4,42,1Z"></path><path class="cls-15" d="M32,37H52a0,0,0,0,1,0,0v0a4,4,0,0,1-4,4H36a4,4,0,0,1-4-4v0A0,0,0,0,1,32,37Z"></path><path class="cls-16" d="M35.00024,37H32a4,4,0,0,0,4,4h3a3.99989,3.99989,0,0,1-3.99976-4Z"></path><path class="cls-3" d="M32,37H52a0,0,0,0,1,0,0v0a4,4,0,0,1-4,4H36a4,4,0,0,1-4-4v0A0,0,0,0,1,32,37Z"></path><path class="cls-15" d="M36.38715,7h11.2257A15.49165,15.49165,0,0,0,42,1,15.49165,15.49165,0,0,0,36.38715,7Z"></path><path class="cls-16" d="M36.38873,6.99738,36.38715,7h1.6A19.94923,19.94923,0,0,1,42,1,15.87144,15.87144,0,0,0,36.38873,6.99738Z"></path><path class="cls-3" d="M36.38715,7h11.2257A15.49165,15.49165,0,0,0,42,1,15.49165,15.49165,0,0,0,36.38715,7Z"></path><circle class="cls-6" cx="44.5" cy="24.5" r="4.5"></circle><circle class="cls-6" cx="44.5" cy="14" r="2"></circle><path class="cls-19" d="M44.5,22A2.5,2.5,0,0,1,47,24.5"></path><path class="cls-15" d="M35,32.80265,28.53,36.8464a1,1,0,0,1-1.53-.848V33.20577a4,4,0,0,1,.87652-2.49878L35,21.80265Z"></path></g></g></g></svg>